<svg width="39" height="42" viewBox="0 0 39 42" fill="none" xmlns="http://www.w3.org/2000/svg">
<path d="M18.122 2.95109C18.871 0.647813 22.129 0.647813 22.878 2.95109L25.076 9.71703C25.545 11.1591 26.888 12.1355 28.405 12.1355H35.519C37.941 12.1355 38.948 15.2345 36.988 16.658L31.233 20.8396C30.006 21.7309 29.493 23.3106 29.961 24.7527L32.16 31.5187C32.908 33.822 30.272 35.7373 28.313 34.3138L22.557 30.1322C21.331 29.2409 19.669 29.2409 18.443 30.1322L12.687 34.3138C10.728 35.7373 8.092 33.822 8.84 31.5187L11.039 24.7527C11.507 23.3106 10.994 21.7309 9.767 20.8396L4.012 16.658C2.052 15.2345 3.05901 12.1355 5.48101 12.1355H12.595C14.112 12.1355 15.455 11.1591 15.924 9.71703L18.122 2.95109Z" stroke="#FFC226"/>
<mask id="mask0_2514_2" style="mask-type:alpha" maskUnits="userSpaceOnUse" x="2" y="0" width="37" height="35">
<path d="M17.1714 2.08857C18.0694 -0.675358 21.9794 -0.675358 22.8774 2.08857L25.0764 8.85452C25.4774 10.0906 26.6294 10.9275 27.9294 10.9275H35.0434C37.9494 10.9275 39.1574 14.6463 36.8064 16.3545L31.0514 20.5361C29.9994 21.3 29.5594 22.6541 29.9614 23.8902L32.1594 30.6562C32.1594 30.6562 29.8944 35.7185 27.5434 34.0103L21.7874 29.8287C20.7364 29.0648 19.3124 29.0648 18.2614 29.8287L12.5054 34.0103C10.1544 35.7185 6.9914 33.4201 7.8894 30.6562L10.0874 23.8902C10.4894 22.6541 10.0494 21.3 8.9974 20.5361L3.2424 16.3545C0.891397 14.6463 2.0994 10.9275 5.0054 10.9275H12.1194C13.4194 10.9275 14.5714 10.0906 14.9724 8.85452L17.1714 2.08857Z" fill="#FFC226"/>
</mask>
<g mask="url(#mask0_2514_2)">
<path d="M20 -4.98438H0V41.0156H20V-4.98438Z" fill="#FFC226"/>
</g>
</svg>
