<svg width="553" height="361" viewBox="0 0 553 361" fill="none" xmlns="http://www.w3.org/2000/svg">
<rect width="553" height="361" rx="12.2826" fill="white" fill-opacity="0.57"/>
<path d="M305.847 159.771C305.847 155.415 309.379 151.883 313.735 151.883H342.657C347.013 151.883 350.545 155.415 350.545 159.771V165.03H305.847V159.771Z" fill="#404040"/>
<path d="M305.847 196.581C305.847 200.937 309.379 204.469 313.735 204.469H342.657C347.013 204.469 350.545 200.937 350.545 196.581V191.322H305.847V196.581Z" fill="#404040"/>
<rect x="305.847" y="167.659" width="44.6978" height="21.0343" fill="#404040"/>
<circle cx="315.05" cy="179.49" r="3.2866" fill="#FDDC38" stroke="white" stroke-width="1.31464"/>
<line x1="213.344" y1="210.839" x2="213.344" y2="234.502" stroke="#404040" stroke-width="2.62928" stroke-linecap="round" stroke-dasharray="7.89 7.89"/>
<line x1="337.257" y1="209.652" x2="337.257" y2="235.922" stroke="#404040" stroke-width="2.62928" stroke-linecap="round" stroke-dasharray="7.89 7.89"/>
<path d="M214 235L336 236" stroke="#404040" stroke-width="2.62928" stroke-linecap="round" stroke-dasharray="7.89 7.89"/>
<path d="M200 147.492C200 143.136 203.532 139.604 207.888 139.604H257.844C262.201 139.604 265.732 143.136 265.732 147.492V184.302H200V147.492Z" fill="#404040"/>
<path d="M200 197.448C200 201.804 203.532 205.336 207.888 205.336H257.844C262.201 205.336 265.732 201.804 265.732 197.448V186.931H200V197.448Z" fill="#FDDC38"/>
<rect opacity="0.39" x="138" y="94" width="288" height="184" rx="7" stroke="#404040" stroke-width="2"/>
<rect opacity="0.39" x="118" y="73" width="328" height="223" rx="7" stroke="#404040" stroke-width="2"/>
<path d="M458.629 60C457.177 60 456 61.1772 456 62.6293V101.727H447V111H465V62.6293C465 61.1772 463.823 60 462.371 60H458.629Z" fill="#404040"/>
<path d="M479 60.5C479 58.0705 478.521 55.6649 477.592 53.4204C476.662 51.1758 475.299 49.1364 473.581 47.4185C471.864 45.7006 469.824 44.3379 467.58 43.4082C465.335 42.4785 462.929 42 460.5 42V48.1402C462.123 48.1402 463.73 48.4599 465.23 49.081C466.729 49.7022 468.092 50.6126 469.24 51.7603C470.387 52.908 471.298 54.2705 471.919 55.7701C472.54 57.2697 472.86 58.8769 472.86 60.5H479Z" fill="#FDDC38"/>
<path d="M493 60.5C493 56.232 492.159 52.0059 490.526 48.0628C488.893 44.1197 486.499 40.5369 483.481 37.519C480.463 34.5011 476.88 32.1072 472.937 30.4739C468.994 28.8406 464.768 28 460.5 28V36.0883C463.706 36.0883 466.88 36.7197 469.842 37.9465C472.804 39.1733 475.495 40.9715 477.762 43.2383C480.029 45.5052 481.827 48.1963 483.053 51.1581C484.28 54.1198 484.912 57.2942 484.912 60.5H493Z" fill="#404040"/>
</svg>
