<svg width="159" height="49" viewBox="0 0 159 49" fill="none" xmlns="http://www.w3.org/2000/svg">
<path d="M6.28204 44.1621V40.8336L15.0769 33.9233L21.359 40.2054V49.0003H11.1202C10.0216 49.0003 8.9557 48.6264 8.09783 47.9401C6.95014 47.0219 6.28204 45.6319 6.28204 44.1621Z" fill="#FDDC38"/>
<path d="M22.6154 48.9999V40.205L35.1795 31.4102L38.9487 35.1794V48.9999H22.6154Z" fill="#FDDC38"/>
<path d="M40.2051 49.0003V35.1798L56.5385 22.6157V43.092C56.5385 44.4742 56.0539 45.8126 55.169 46.8744C54.0465 48.2215 52.3836 49.0003 50.6301 49.0003H40.2051Z" fill="#FDDC38"/>
<path d="M1.25641 41.4614L15.0769 30.7819L21.9872 37.6922L35.1795 28.2691L39.5769 32.6666L60.3077 16.9614" stroke="#FDDC38" stroke-width="2.51282" stroke-linecap="round"/>
<path d="M7.53848 28.8979L8.11088 3.71256C8.1419 2.34737 9.2575 1.25684 10.623 1.25684H52.141C53.5288 1.25684 54.6539 2.38186 54.6539 3.76966V15.0773" stroke="white" stroke-width="2.51282" stroke-linecap="round"/>
<g clip-path="url(#clip0_30_323)">
<rect x="23.8718" y="6.28223" width="1.25641" height="17.5897" fill="white"/>
<rect x="35.1795" y="6.28223" width="1.25641" height="17.5897" fill="white"/>
<path d="M19.0452 10.2619C19.5327 10.2619 19.9907 10.3404 20.4194 10.4974C20.848 10.6512 21.221 10.8704 21.5383 11.1551C21.8557 11.4365 22.106 11.7768 22.2892 12.1759C22.4725 12.5718 22.5641 13.0119 22.5641 13.4961V15.1354C22.5641 15.6229 22.4725 16.0662 22.2892 16.4654C22.106 16.8646 21.8557 17.2065 21.5383 17.4911C21.221 17.7725 20.848 17.9901 20.4194 18.1439C19.9907 18.2977 19.5327 18.3745 19.0452 18.3745C18.5609 18.3745 18.1061 18.2977 17.6808 18.1439C17.2522 17.9901 16.8792 17.7725 16.5618 17.4911C16.2411 17.2065 15.9892 16.8646 15.806 16.4654C15.6195 16.0662 15.5262 15.6229 15.5262 15.1354V13.4961C15.5262 13.0119 15.6195 12.5718 15.806 12.1759C15.9892 11.7768 16.2411 11.4365 16.5618 11.1551C16.8792 10.8704 17.2522 10.6512 17.6808 10.4974C18.1061 10.3404 18.5609 10.2619 19.0452 10.2619ZM19.0452 11.268C18.6983 11.268 18.3728 11.3203 18.0685 11.425C17.7642 11.5265 17.4992 11.6737 17.2734 11.8667C17.0444 12.0565 16.8644 12.2888 16.7336 12.5637C16.5994 12.8385 16.5323 13.1493 16.5323 13.4961V15.1354C16.5323 15.4822 16.5994 15.7947 16.7336 16.0728C16.8644 16.3476 17.0444 16.5815 17.2734 16.7746C17.4992 16.9644 17.7642 17.1116 18.0685 17.2163C18.3728 17.3177 18.6983 17.3684 19.0452 17.3684C19.392 17.3684 19.7192 17.3177 20.0267 17.2163C20.331 17.1116 20.5977 16.9644 20.8267 16.7746C21.0525 16.5815 21.2308 16.3476 21.3617 16.0728C21.4925 15.7947 21.558 15.4822 21.558 15.1354V13.4961C21.558 13.1493 21.4925 12.8385 21.3617 12.5637C21.2308 12.2888 21.0525 12.0565 20.8267 11.8667C20.5977 11.6737 20.331 11.5265 20.0267 11.425C19.7192 11.3203 19.392 11.268 19.0452 11.268Z" fill="white"/>
<path d="M33.3685 17.5381H26.8361V15.5259C26.8361 15.251 26.8885 14.9925 26.9932 14.7504C27.1012 14.505 27.2451 14.2924 27.4251 14.1124C27.6083 13.9292 27.821 13.7852 28.0631 13.6805C28.3085 13.5725 28.5702 13.5186 28.8484 13.5186H31.3612C31.4986 13.5186 31.6278 13.4924 31.7489 13.44C31.8732 13.3877 31.9796 13.3157 32.0679 13.2241C32.1595 13.1325 32.2315 13.0261 32.2839 12.9051C32.3395 12.7807 32.3673 12.6499 32.3673 12.5124C32.3673 12.375 32.3395 12.2458 32.2839 12.1247C32.2315 12.0004 32.1595 11.8924 32.0679 11.8008C31.9796 11.7092 31.8732 11.6372 31.7489 11.5849C31.6278 11.5325 31.4986 11.5063 31.3612 11.5063H27.3416V10.5002H31.3612C31.636 10.5002 31.8945 10.5542 32.1366 10.6622C32.382 10.7669 32.5947 10.9108 32.7746 11.0941C32.9579 11.274 33.1018 11.4867 33.2065 11.7321C33.3145 11.9775 33.3685 12.2376 33.3685 12.5124C33.3685 12.7873 33.3145 13.0474 33.2065 13.2928C33.1018 13.5382 32.9579 13.7525 32.7746 13.9357C32.5947 14.1157 32.382 14.2596 32.1366 14.3676C31.8945 14.4723 31.636 14.5247 31.3612 14.5247H28.8484C28.7109 14.5247 28.5801 14.5508 28.4557 14.6032C28.3314 14.6555 28.2234 14.7275 28.1318 14.8191C28.0402 14.9107 27.9666 15.0171 27.911 15.1381C27.8586 15.2592 27.8324 15.3884 27.8324 15.5259V16.532H33.3685V17.5381Z" fill="white"/>
<path d="M43.086 4.21588C43.5147 4.36966 43.8876 4.58887 44.205 4.87353C44.5224 5.15491 44.7727 5.49519 44.9559 5.89436C45.1391 6.29026 45.2308 6.73033 45.2308 7.21458V8.8538C45.2308 9.34131 45.1391 9.78465 44.9559 10.1838C44.7727 10.583 44.5224 10.9249 44.205 11.2096C43.8876 11.491 43.5147 11.7085 43.086 11.8623C42.6574 12.0161 42.1993 12.093 41.7118 12.093C41.2276 12.093 40.7728 12.0161 40.3474 11.8623C39.9188 11.7085 39.5458 11.491 39.2285 11.2096C38.9078 10.9249 38.6559 10.583 38.4726 10.1838C38.2862 9.78465 38.1929 9.34131 38.1929 8.8538V7.21458C38.1929 6.73033 38.2862 6.29026 38.4726 5.89436C38.6559 5.49519 38.9078 5.15491 39.2285 4.87353C39.5458 4.58887 39.9188 4.36966 40.3474 4.21588C41.2148 3.89563 42.2184 3.89795 43.086 4.21588ZM40.7352 5.14346C40.4309 5.24489 40.1659 5.39213 39.9401 5.58517C39.7111 5.77494 39.5311 6.00724 39.4002 6.28208C39.2661 6.55692 39.199 6.86775 39.199 7.21458V8.8538C39.199 9.20062 39.2661 9.51309 39.4002 9.7912C39.5311 10.066 39.7111 10.3 39.9401 10.493C40.1659 10.6828 40.4309 10.83 40.7352 10.9347C41.0395 11.0362 41.365 11.0869 41.7118 11.0869C42.0587 11.0869 42.3858 11.0362 42.6934 10.9347C42.9977 10.83 43.2643 10.6828 43.4934 10.493C43.7191 10.3 43.8975 10.066 44.0283 9.7912C44.1592 9.51309 44.2247 9.20062 44.2247 8.8538V7.21458C44.2247 6.86775 44.1592 6.55692 44.0283 6.28208C43.8975 6.00724 43.7191 5.77494 43.4934 5.58517C43.2643 5.39213 42.9977 5.24489 42.6934 5.14346C42.0783 4.93406 41.3437 4.93406 40.7352 5.14346Z" fill="white"/>
<path d="M42.5069 21.359H41.5008V16.5837H40.4947V15.5776H42.5069V21.359Z" fill="white"/>
</g>
<rect x="13.1923" y="5.6536" width="35.1795" height="17.5897" rx="1.88462" stroke="white" stroke-width="1.25641"/>
<path d="M65.3379 34.7041L69.3836 13.913H74.0976L78.0729 34.7041H74.3439L73.4996 30.4826H69.7002L68.9262 34.7041H65.3379ZM69.7705 28.7588H73.4644L71.6351 17.1847L69.7705 28.7588ZM79.9652 34.7041V17.2903H82.7795L83.061 19.3658C83.319 18.6623 83.7411 18.0994 84.3274 17.6772C84.9372 17.2551 85.6525 17.044 86.4734 17.044C87.8102 17.044 88.7601 17.3254 89.3229 17.8883C89.8858 18.4512 90.1907 19.272 90.2376 20.3509H89.8154C89.9796 19.3893 90.39 18.6036 91.0467 17.9938C91.7269 17.3606 92.5594 17.044 93.5445 17.044C95.0455 17.044 96.0539 17.4075 96.5699 18.1346C97.1093 18.8382 97.379 19.9053 97.379 21.3359V34.7041H94.0722V21.6525C94.0722 20.8082 93.9314 20.2219 93.65 19.8935C93.392 19.5652 92.9581 19.401 92.3484 19.401C91.8089 19.401 91.3516 19.5535 90.9764 19.8584C90.6011 20.1632 90.3783 20.5502 90.3079 21.0193V34.7041H87.0011V21.5118C87.0011 20.7613 86.8721 20.2219 86.6141 19.8935C86.3796 19.5652 85.934 19.401 85.2773 19.401C84.7379 19.401 84.304 19.53 83.9756 19.788C83.6708 20.046 83.4362 20.3509 83.2721 20.7027V34.7041H79.9652ZM100.132 34.7041V17.2903H103.438V34.7041H100.132ZM101.785 15.3202C101.292 15.3202 100.87 15.156 100.519 14.8277C100.19 14.4759 100.014 14.0537 99.9908 13.5612C99.9908 13.0922 100.167 12.6935 100.519 12.3651C100.87 12.0133 101.292 11.8374 101.785 11.8374C102.277 11.8374 102.7 12.0133 103.051 12.3651C103.403 12.6935 103.579 13.1039 103.579 13.5964C103.603 14.0655 103.427 14.4759 103.051 14.8277C102.7 15.156 102.277 15.3202 101.785 15.3202ZM109.197 34.7041L105.327 17.2903H108.74L111.378 30.9751H111.343L113.77 17.2903H116.901L113.137 34.7041H109.197ZM118.786 34.7041V17.2903H122.093V34.7041H118.786ZM120.44 15.3202C119.947 15.3202 119.525 15.156 119.173 14.8277C118.845 14.4759 118.669 14.0537 118.646 13.5612C118.646 13.0922 118.821 12.6935 119.173 12.3651C119.525 12.0133 119.947 11.8374 120.44 11.8374C120.932 11.8374 121.354 12.0133 121.706 12.3651C122.058 12.6935 122.234 13.1039 122.234 13.5964C122.257 14.0655 122.081 14.4759 121.706 14.8277C121.354 15.156 120.932 15.3202 120.44 15.3202ZM129.892 35.0559C128.743 35.0559 127.805 34.9269 127.078 34.6689C126.374 34.4109 125.835 34.0591 125.459 33.6135C125.108 33.1445 124.873 32.5933 124.756 31.9601C124.639 31.3269 124.58 30.6467 124.58 29.9197V28.6532H127.922V30.5529C127.922 31.0454 127.945 31.5028 127.992 31.9249C128.039 32.3236 128.192 32.6402 128.45 32.8748C128.731 33.1093 129.2 33.2266 129.857 33.2266C130.443 33.2266 130.865 33.121 131.123 32.9099C131.381 32.6754 131.545 32.394 131.616 32.0656C131.686 31.7138 131.721 31.3855 131.721 31.0806V29.8493C131.721 29.263 131.604 28.7822 131.37 28.407C131.158 28.0317 130.818 27.7151 130.349 27.4571C129.904 27.1991 129.353 26.9294 128.696 26.648C128.016 26.39 127.383 26.0851 126.796 25.7333C126.233 25.3815 125.776 24.9359 125.424 24.3965C125.096 23.8336 124.932 23.13 124.932 22.2857V21.2304C124.932 19.8466 125.319 18.7912 126.093 18.0642C126.867 17.3137 128.227 16.9385 130.173 16.9385C131.44 16.9385 132.437 17.1144 133.164 17.4662C133.914 17.7945 134.442 18.3222 134.747 19.0492C135.075 19.7528 135.239 20.6675 135.239 21.7932V23.13H132.038V21.2655C132.038 20.3274 131.886 19.6825 131.581 19.3307C131.299 18.9554 130.83 18.7678 130.173 18.7678C129.446 18.7678 128.954 18.9554 128.696 19.3307C128.438 19.7059 128.309 20.1632 128.309 20.7027V21.8988C128.309 22.532 128.461 23.0362 128.766 23.4115C129.095 23.7867 129.517 24.1033 130.033 24.3613C130.549 24.5959 131.135 24.8421 131.792 25.1001C132.425 25.3346 133 25.6161 133.516 25.9444C134.055 26.2728 134.477 26.7066 134.782 27.246C135.087 27.7855 135.239 28.5008 135.239 29.392V30.3418C135.239 31.2565 135.099 32.0656 134.817 32.7692C134.536 33.4728 134.008 34.0357 133.234 34.4578C132.46 34.8565 131.346 35.0559 129.892 35.0559ZM142.71 34.9855C141.42 34.9855 140.388 34.8096 139.614 34.4578C138.84 34.0826 138.289 33.4963 137.96 32.6989C137.632 31.878 137.468 30.7992 137.468 29.4624V21.7932C137.468 20.7613 137.62 19.8935 137.925 19.1899C138.254 18.4864 138.805 17.9469 139.579 17.5717C140.353 17.1964 141.396 17.0088 142.71 17.0088C144.023 17.0088 145.055 17.1964 145.806 17.5717C146.556 17.9469 147.095 18.4864 147.424 19.1899C147.752 19.8935 147.916 20.7613 147.916 21.7932V29.4624C147.916 30.7992 147.74 31.878 147.389 32.6989C147.06 33.4963 146.509 34.0826 145.735 34.4578C144.985 34.8096 143.976 34.9855 142.71 34.9855ZM142.71 32.9803C143.273 32.9803 143.683 32.8748 143.941 32.6637C144.222 32.4292 144.398 32.1243 144.469 31.749C144.563 31.3503 144.609 30.9282 144.609 30.4826V21.5118C144.609 21.0427 144.563 20.6206 144.469 20.2453C144.398 19.8701 144.222 19.5652 143.941 19.3307C143.683 19.0961 143.273 18.9789 142.71 18.9789C142.123 18.9789 141.69 19.0961 141.408 19.3307C141.127 19.5652 140.951 19.8701 140.88 20.2453C140.81 20.6206 140.775 21.0427 140.775 21.5118V30.4826C140.775 30.9282 140.81 31.3503 140.88 31.749C140.951 32.1243 141.127 32.4292 141.408 32.6637C141.69 32.8748 142.123 32.9803 142.71 32.9803ZM150.599 34.7041V17.2903H153.413L153.695 19.2955C153.929 18.7092 154.293 18.2753 154.785 17.9938C155.278 17.689 155.782 17.4779 156.298 17.3606C157.025 17.1026 157.764 17.0557 158.514 17.2199V19.7528C158.444 19.7294 158.268 19.7059 157.987 19.6825C157.705 19.6356 157.389 19.6238 157.037 19.6473C156.685 19.6707 156.38 19.7528 156.122 19.8935C155.442 20.0577 154.903 20.3978 154.504 20.9137C154.105 21.4063 153.906 22.0395 153.906 22.8134V34.7041H150.599Z" fill="white"/>
<defs>
<clipPath id="clip0_30_323">
<rect x="12.5641" y="5.02539" width="36.4359" height="18.8462" rx="2.51282" fill="white"/>
</clipPath>
</defs>
</svg>
