<svg width="553" height="361" viewBox="0 0 553 361" fill="none" xmlns="http://www.w3.org/2000/svg">
<rect width="553" height="361" rx="12.2826" fill="white" fill-opacity="0.57"/>
<path d="M248.847 50.7711C248.847 46.4148 252.379 42.8833 256.735 42.8833H285.657C290.013 42.8833 293.545 46.4148 293.545 50.7711V56.0297H248.847V50.7711Z" fill="#404040"/>
<path d="M248.847 87.5809C248.847 91.9372 252.379 95.4688 256.735 95.4688H285.657C290.013 95.4688 293.545 91.9372 293.545 87.5809V82.3223H248.847V87.5809Z" fill="#404040"/>
<rect x="248.847" y="58.6592" width="44.6978" height="21.0343" fill="#404040"/>
<circle cx="258.05" cy="70.4903" r="3.2866" fill="#FDDC38" stroke="white" stroke-width="1.31464"/>
<path d="M304.062 42.8833C302.61 42.8833 301.433 44.0605 301.433 45.5126V66.5469H296.174V71.8054H306.692V45.5126C306.692 44.0605 305.514 42.8833 304.062 42.8833Z" fill="#404040"/>
<path d="M314.579 42.8829C314.579 41.5017 314.307 40.1341 313.779 38.8581C313.25 37.5821 312.476 36.4227 311.499 35.4461C310.522 34.4695 309.363 33.6948 308.087 33.1663C306.811 32.6378 305.443 32.3657 304.062 32.3657V35.8564C304.985 35.8564 305.899 36.0381 306.751 36.3912C307.604 36.7444 308.378 37.2619 309.031 37.9144C309.683 38.5669 310.201 39.3415 310.554 40.1939C310.907 41.0464 311.089 41.9601 311.089 42.8829H314.579Z" fill="#FDDC38"/>
<path d="M322.467 42.883C322.467 40.466 321.991 38.0727 321.066 35.8397C320.141 33.6067 318.785 31.5778 317.076 29.8687C315.367 28.1597 313.338 26.804 311.105 25.879C308.872 24.9541 306.479 24.478 304.062 24.478V29.0585C305.877 29.0585 307.675 29.4161 309.352 30.1108C311.03 30.8056 312.554 31.8239 313.837 33.1076C315.121 34.3913 316.139 35.9153 316.834 37.5926C317.529 39.2699 317.887 41.0676 317.887 42.883H322.467Z" fill="#404040"/>
<line x1="242.274" y1="86.2663" x2="52.9656" y2="86.2663" stroke="#404040" stroke-width="2.62928" stroke-linecap="round" stroke-dasharray="7.89 7.89"/>
<line x1="53.3146" y1="86.2897" x2="53.3146" y2="314.851" stroke="#404040" stroke-width="2.62928" stroke-linecap="round" stroke-dasharray="7.89 7.89"/>
<line x1="99.8041" y1="290.839" x2="99.8041" y2="314.502" stroke="#404040" stroke-width="2.62928" stroke-linecap="round" stroke-dasharray="7.89 7.89"/>
<line x1="243.344" y1="290.839" x2="243.344" y2="314.502" stroke="#404040" stroke-width="2.62928" stroke-linecap="round" stroke-dasharray="7.89 7.89"/>
<line x1="387.257" y1="289.652" x2="387.257" y2="315.922" stroke="#404040" stroke-width="2.62928" stroke-linecap="round" stroke-dasharray="7.89 7.89"/>
<path d="M54.1406 315.096L387.013 316.166" stroke="#404040" stroke-width="2.62928" stroke-linecap="round" stroke-dasharray="7.89 7.89"/>
<path d="M85.8318 227.492C85.8318 223.136 89.3633 219.604 93.7196 219.604H143.676C148.032 219.604 151.564 223.136 151.564 227.492V264.302H85.8318V227.492Z" fill="#404040"/>
<path d="M85.8317 277.448C85.8317 281.804 89.3632 285.336 93.7196 285.336H143.676C148.032 285.336 151.564 281.804 151.564 277.448V266.931H85.8317V277.448Z" fill="#FDDC38"/>
<path d="M227.813 227.492C227.813 223.136 231.344 219.604 235.701 219.604H285.657C290.014 219.604 293.545 223.136 293.545 227.492V264.302H227.813V227.492Z" fill="#404040"/>
<path d="M227.813 277.448C227.813 281.804 231.344 285.336 235.701 285.336H285.657C290.014 285.336 293.545 281.804 293.545 277.448V266.931H227.813V277.448Z" fill="#FDDC38"/>
<path d="M372.424 227.492C372.424 223.136 375.955 219.604 380.312 219.604H430.268C434.624 219.604 438.156 223.136 438.156 227.492V264.302H372.424V227.492Z" fill="#404040"/>
<path d="M372.424 277.448C372.424 281.804 375.955 285.336 380.311 285.336H430.268C434.624 285.336 438.156 281.804 438.156 277.448V266.931H372.424V277.448Z" fill="#FDDC38"/>
<path fill-rule="evenodd" clip-rule="evenodd" d="M179.171 137.537C179.897 137.537 180.486 138.125 180.486 138.851V258.484C180.486 259.21 179.897 259.798 179.171 259.798C178.445 259.798 177.857 259.21 177.857 258.484V138.851C177.857 138.125 178.445 137.537 179.171 137.537ZM171.025 217.73C168.731 216.813 166.623 215.435 164.842 213.654C161.391 210.203 159.452 205.521 159.452 200.64C159.452 195.759 161.391 191.077 164.842 187.626C168.294 184.174 172.975 182.235 177.857 182.235V184.996C173.707 184.996 169.728 186.644 166.794 189.578C163.861 192.512 162.212 196.491 162.212 200.64C162.212 204.789 163.861 208.768 166.794 211.702C169.728 214.636 173.707 216.284 177.857 216.284V219.045L177.857 219.176C173.707 219.176 169.728 220.825 166.794 223.759C163.861 226.692 162.212 230.672 162.212 234.821C162.212 238.97 163.861 242.949 166.794 245.883C169.728 248.817 173.707 250.465 177.857 250.465V253.226C172.975 253.226 168.294 251.287 164.842 247.835C161.391 244.383 159.452 239.702 159.452 234.821C159.452 229.939 161.391 225.258 164.842 221.806C166.623 220.026 168.731 218.647 171.025 217.73Z" fill="#404040"/>
<path fill-rule="evenodd" clip-rule="evenodd" d="M323.782 137.537C324.508 137.537 325.097 138.125 325.097 138.851V258.484C325.097 259.21 324.508 259.798 323.782 259.798C323.056 259.798 322.467 259.21 322.467 258.484V138.851C322.467 138.125 323.056 137.537 323.782 137.537ZM315.636 217.73C313.342 216.813 311.234 215.435 309.453 213.654C306.001 210.203 304.062 205.521 304.062 200.64C304.062 195.759 306.001 191.077 309.453 187.626C312.904 184.174 317.586 182.235 322.467 182.235V184.996C318.318 184.996 314.339 186.644 311.405 189.578C308.471 192.512 306.823 196.491 306.823 200.64C306.823 204.789 308.471 208.768 311.405 211.702C314.339 214.636 318.318 216.284 322.467 216.284V219.045L322.467 219.176C318.318 219.176 314.339 220.825 311.405 223.759C308.471 226.692 306.823 230.672 306.823 234.821C306.823 238.97 308.471 242.949 311.405 245.883C314.339 248.817 318.318 250.465 322.467 250.465V253.226C317.586 253.226 312.904 251.287 309.453 247.835C306.001 244.383 304.062 239.702 304.062 234.821C304.062 229.939 306.001 225.258 309.453 221.806C311.234 220.026 313.342 218.647 315.636 217.73Z" fill="#404040"/>
<path fill-rule="evenodd" clip-rule="evenodd" d="M468.393 137.537C469.119 137.537 469.707 138.125 469.707 138.851V258.484C469.707 259.21 469.119 259.798 468.393 259.798C467.667 259.798 467.078 259.21 467.078 258.484V138.851C467.078 138.125 467.667 137.537 468.393 137.537ZM460.247 217.73C457.953 216.813 455.845 215.435 454.064 213.654C450.612 210.203 448.673 205.521 448.673 200.64C448.673 195.759 450.612 191.077 454.064 187.626C457.515 184.174 462.197 182.235 467.078 182.235V184.996C462.929 184.996 458.95 186.644 456.016 189.578C453.082 192.512 451.434 196.491 451.434 200.64C451.434 204.789 453.082 208.768 456.016 211.702C458.95 214.636 462.929 216.284 467.078 216.284V219.045L467.078 219.176C462.929 219.176 458.95 220.825 456.016 223.759C453.082 226.692 451.434 230.672 451.434 234.821C451.434 238.97 453.082 242.949 456.016 245.883C458.95 248.817 462.929 250.465 467.078 250.465V253.226C462.197 253.226 457.515 251.287 454.064 247.835C450.612 244.383 448.673 239.702 448.673 234.821C448.673 229.939 450.612 225.258 454.064 221.806C455.845 220.026 457.953 218.647 460.247 217.73Z" fill="#404040"/>
<rect x="70.056" y="129.649" width="425.944" height="10.5171" rx="5.25857" fill="#404040"/>
</svg>
