<svg width="561" height="369" viewBox="0 0 561 369" fill="none" xmlns="http://www.w3.org/2000/svg">
<g filter="url(#filter0_d_27_162)">
<rect x="4" width="553" height="361" rx="12.2826" fill="white" fill-opacity="0.57" shape-rendering="crispEdges"/>
<path d="M309.847 159.771C309.847 155.415 313.379 151.883 317.735 151.883H346.657C351.013 151.883 354.545 155.415 354.545 159.771V165.03H309.847V159.771Z" fill="#404040"/>
<path d="M309.847 196.581C309.847 200.937 313.379 204.469 317.735 204.469H346.657C351.013 204.469 354.545 200.937 354.545 196.581V191.322H309.847V196.581Z" fill="#404040"/>
<rect x="309.847" y="167.659" width="44.6978" height="21.0343" fill="#404040"/>
<circle cx="319.05" cy="179.49" r="3.2866" fill="#FDDC38" stroke="white" stroke-width="1.31464"/>
<line x1="217.344" y1="210.839" x2="217.344" y2="234.502" stroke="#404040" stroke-width="2.62928" stroke-linecap="round" stroke-dasharray="7.89 7.89"/>
<line x1="341.257" y1="209.652" x2="341.257" y2="235.922" stroke="#404040" stroke-width="2.62928" stroke-linecap="round" stroke-dasharray="7.89 7.89"/>
<path d="M218 235L340 236" stroke="#404040" stroke-width="2.62928" stroke-linecap="round" stroke-dasharray="7.89 7.89"/>
<path d="M204 147.492C204 143.136 207.532 139.604 211.888 139.604H261.844C266.201 139.604 269.732 143.136 269.732 147.492V184.302H204V147.492Z" fill="#404040"/>
<path d="M204 197.448C204 201.804 207.532 205.336 211.888 205.336H261.844C266.201 205.336 269.732 201.804 269.732 197.448V186.931H204V197.448Z" fill="#FDDC38"/>
<rect opacity="0.39" x="142" y="94" width="288" height="184" rx="7" stroke="#404040" stroke-width="2"/>
<rect opacity="0.39" x="122" y="73" width="328" height="223" rx="7" stroke="#404040" stroke-width="2"/>
<path d="M462.629 60C461.177 60 460 61.1772 460 62.6293V101.727H451V111H469V62.6293C469 61.1772 467.823 60 466.371 60H462.629Z" fill="#404040"/>
<path d="M483 60.5C483 58.0705 482.521 55.6649 481.592 53.4204C480.662 51.1758 479.299 49.1364 477.581 47.4185C475.864 45.7006 473.824 44.3379 471.58 43.4082C469.335 42.4785 466.929 42 464.5 42V48.1402C466.123 48.1402 467.73 48.4599 469.23 49.081C470.729 49.7022 472.092 50.6126 473.24 51.7603C474.387 52.908 475.298 54.2705 475.919 55.7701C476.54 57.2697 476.86 58.8769 476.86 60.5H483Z" fill="#FDDC38"/>
<path d="M497 60.5C497 56.232 496.159 52.0059 494.526 48.0628C492.893 44.1197 490.499 40.5369 487.481 37.519C484.463 34.5011 480.88 32.1072 476.937 30.4739C472.994 28.8406 468.768 28 464.5 28V36.0883C467.706 36.0883 470.88 36.7197 473.842 37.9465C476.804 39.1733 479.495 40.9715 481.762 43.2383C484.029 45.5052 485.827 48.1963 487.053 51.1581C488.28 54.1198 488.912 57.2942 488.912 60.5H497Z" fill="#404040"/>
</g>
<defs>
<filter id="filter0_d_27_162" x="0" y="0" width="561" height="369" filterUnits="userSpaceOnUse" color-interpolation-filters="sRGB">
<feFlood flood-opacity="0" result="BackgroundImageFix"/>
<feColorMatrix in="SourceAlpha" type="matrix" values="0 0 0 0 0 0 0 0 0 0 0 0 0 0 0 0 0 0 127 0" result="hardAlpha"/>
<feOffset dy="4"/>
<feGaussianBlur stdDeviation="2"/>
<feComposite in2="hardAlpha" operator="out"/>
<feColorMatrix type="matrix" values="0 0 0 0 0 0 0 0 0 0 0 0 0 0 0 0 0 0 0.25 0"/>
<feBlend mode="normal" in2="BackgroundImageFix" result="effect1_dropShadow_27_162"/>
<feBlend mode="normal" in="SourceGraphic" in2="effect1_dropShadow_27_162" result="shape"/>
</filter>
</defs>
</svg>
