<svg width="553" height="361" viewBox="0 0 553 361" fill="none" xmlns="http://www.w3.org/2000/svg">
<rect width="553" height="361" rx="12.2826" fill="white" fill-opacity="0.57"/>
<path d="M158 164.594C158 161.505 160.505 159 163.594 159H199.406C202.495 159 205 161.505 205 164.594V191H158V164.594Z" fill="#404040"/>
<path d="M158 200.406C158 203.495 160.505 206 163.594 206H199.406C202.495 206 205 203.495 205 200.406V193H158V200.406Z" fill="#FDDC38"/>
<path d="M211.25 159C210.284 159 209.5 159.784 209.5 160.75V176.182H206V180H213V160.75C213 159.784 212.216 159 211.25 159Z" fill="#404040"/>
<path d="M219 159.5C219 158.515 218.806 157.54 218.429 156.63C218.052 155.72 217.5 154.893 216.803 154.197C216.107 153.5 215.28 152.948 214.37 152.571C213.46 152.194 212.485 152 211.5 152L211.5 154.489C212.158 154.489 212.81 154.619 213.418 154.871C214.025 155.123 214.578 155.492 215.043 155.957C215.508 156.422 215.877 156.975 216.129 157.582C216.381 158.19 216.511 158.842 216.511 159.5H219Z" fill="#FDDC38"/>
<path d="M225 159C225 157.293 224.664 155.602 224.01 154.025C223.357 152.448 222.4 151.015 221.192 149.808C219.985 148.6 218.552 147.643 216.975 146.99C215.398 146.336 213.707 146 212 146L212 149.235C213.282 149.235 214.552 149.488 215.737 149.979C216.921 150.469 217.998 151.189 218.905 152.095C219.811 153.002 220.531 154.079 221.021 155.263C221.512 156.448 221.765 157.718 221.765 159H225Z" fill="#404040"/>
<path d="M158 250.594C158 247.505 160.505 245 163.594 245H199.406C202.495 245 205 247.505 205 250.594V277H158V250.594Z" fill="#404040"/>
<path d="M158 286.406C158 289.495 160.505 292 163.594 292H199.406C202.495 292 205 289.495 205 286.406V279H158V286.406Z" fill="#FDDC38"/>
<path d="M211.25 245C210.284 245 209.5 245.784 209.5 246.75V262.182H206V266H213V246.75C213 245.784 212.216 245 211.25 245Z" fill="#404040"/>
<path d="M219 245.5C219 244.515 218.806 243.54 218.429 242.63C218.052 241.72 217.5 240.893 216.803 240.197C216.107 239.5 215.28 238.948 214.37 238.571C213.46 238.194 212.485 238 211.5 238L211.5 240.489C212.158 240.489 212.81 240.619 213.418 240.871C214.025 241.123 214.578 241.492 215.043 241.957C215.508 242.422 215.877 242.975 216.129 243.582C216.381 244.19 216.511 244.842 216.511 245.5H219Z" fill="#FDDC38"/>
<path d="M225 245C225 243.293 224.664 241.602 224.01 240.025C223.357 238.448 222.4 237.015 221.192 235.808C219.985 234.6 218.552 233.643 216.975 232.99C215.398 232.336 213.707 232 212 232L212 235.235C213.282 235.235 214.552 235.488 215.737 235.979C216.921 236.469 217.998 237.189 218.905 238.095C219.811 239.002 220.531 240.079 221.021 241.263C221.512 242.448 221.765 243.718 221.765 245H225Z" fill="#404040"/>
<path d="M239 250.594C239 247.505 241.505 245 244.594 245H280.406C283.495 245 286 247.505 286 250.594V277H239V250.594Z" fill="#404040"/>
<path d="M239 286.406C239 289.495 241.505 292 244.594 292H280.406C283.495 292 286 289.495 286 286.406V279H239V286.406Z" fill="#FDDC38"/>
<path d="M292.25 245C291.284 245 290.5 245.784 290.5 246.75V262.182H287V266H294V246.75C294 245.784 293.216 245 292.25 245Z" fill="#404040"/>
<path d="M300 245.5C300 244.515 299.806 243.54 299.429 242.63C299.052 241.72 298.5 240.893 297.803 240.197C297.107 239.5 296.28 238.948 295.37 238.571C294.46 238.194 293.485 238 292.5 238L292.5 240.489C293.158 240.489 293.81 240.619 294.418 240.871C295.025 241.123 295.578 241.492 296.043 241.957C296.508 242.422 296.877 242.975 297.129 243.582C297.381 244.19 297.511 244.842 297.511 245.5H300Z" fill="#FDDC38"/>
<path d="M306 245C306 243.293 305.664 241.602 305.01 240.025C304.357 238.448 303.4 237.015 302.192 235.808C300.985 234.6 299.552 233.643 297.975 232.99C296.398 232.336 294.707 232 293 232L293 235.235C294.282 235.235 295.552 235.488 296.737 235.979C297.921 236.469 298.998 237.189 299.905 238.095C300.811 239.002 301.531 240.079 302.021 241.263C302.512 242.448 302.765 243.718 302.765 245H306Z" fill="#404040"/>
<path d="M77 249.594C77 246.505 79.5046 244 82.5942 244H118.406C121.495 244 124 246.505 124 249.594V276H77V249.594Z" fill="#404040"/>
<path d="M77 285.406C77 288.495 79.5046 291 82.5942 291H118.406C121.495 291 124 288.495 124 285.406V278H77V285.406Z" fill="#FDDC38"/>
<path d="M130.25 244C129.284 244 128.5 244.784 128.5 245.75V261.182H125V265H132V245.75C132 244.784 131.216 244 130.25 244Z" fill="#404040"/>
<path d="M138 244.5C138 243.515 137.806 242.54 137.429 241.63C137.052 240.72 136.5 239.893 135.803 239.197C135.107 238.5 134.28 237.948 133.37 237.571C132.46 237.194 131.485 237 130.5 237L130.5 239.489C131.158 239.489 131.81 239.619 132.418 239.871C133.025 240.123 133.578 240.492 134.043 240.957C134.508 241.422 134.877 241.975 135.129 242.582C135.381 243.19 135.511 243.842 135.511 244.5H138Z" fill="#FDDC38"/>
<path d="M144 244C144 242.293 143.664 240.602 143.01 239.025C142.357 237.448 141.4 236.015 140.192 234.808C138.985 233.6 137.552 232.643 135.975 231.99C134.398 231.336 132.707 231 131 231L131 234.235C132.282 234.235 133.552 234.488 134.737 234.979C135.921 235.469 136.998 236.189 137.905 237.095C138.811 238.002 139.531 239.079 140.021 240.263C140.512 241.448 140.765 242.718 140.765 244H144Z" fill="#404040"/>
<path d="M239 164.594C239 161.505 241.505 159 244.594 159H280.406C283.495 159 286 161.505 286 164.594V191H239V164.594Z" fill="#404040"/>
<path d="M239 200.406C239 203.495 241.505 206 244.594 206H280.406C283.495 206 286 203.495 286 200.406V193H239V200.406Z" fill="#FDDC38"/>
<path d="M292.25 159C291.284 159 290.5 159.784 290.5 160.75V176.182H287V180H294V160.75C294 159.784 293.216 159 292.25 159Z" fill="#404040"/>
<path d="M300 159.5C300 158.515 299.806 157.54 299.429 156.63C299.052 155.72 298.5 154.893 297.803 154.197C297.107 153.5 296.28 152.948 295.37 152.571C294.46 152.194 293.485 152 292.5 152L292.5 154.489C293.158 154.489 293.81 154.619 294.418 154.871C295.025 155.123 295.578 155.492 296.043 155.957C296.508 156.422 296.877 156.975 297.129 157.582C297.381 158.19 297.511 158.842 297.511 159.5H300Z" fill="#FDDC38"/>
<path d="M306 159C306 157.293 305.664 155.602 305.01 154.025C304.357 152.448 303.4 151.015 302.192 149.808C300.985 148.6 299.552 147.643 297.975 146.99C296.398 146.336 294.707 146 293 146L293 149.235C294.282 149.235 295.552 149.488 296.737 149.979C297.921 150.469 298.998 151.189 299.905 152.095C300.811 153.002 301.531 154.079 302.021 155.263C302.512 156.448 302.765 157.718 302.765 159H306Z" fill="#404040"/>
<path d="M239 88.5942C239 85.5046 241.505 83 244.594 83H280.406C283.495 83 286 85.5046 286 88.5942V115H239V88.5942Z" fill="#404040"/>
<path d="M239 124.406C239 127.495 241.505 130 244.594 130H280.406C283.495 130 286 127.495 286 124.406V117H239V124.406Z" fill="#FDDC38"/>
<path d="M292.25 83C291.284 83 290.5 83.7835 290.5 84.75V100.182H287V104H294V84.75C294 83.7835 293.216 83 292.25 83Z" fill="#404040"/>
<path d="M300 83.5C300 82.5151 299.806 81.5398 299.429 80.6299C299.052 79.7199 298.5 78.8931 297.803 78.1967C297.107 77.5003 296.28 76.9478 295.37 76.5709C294.46 76.194 293.485 76 292.5 76L292.5 78.4893C293.158 78.4893 293.81 78.6189 294.418 78.8707C295.025 79.1225 295.578 79.4916 296.043 79.9569C296.508 80.4222 296.877 80.9745 297.129 81.5825C297.381 82.1904 297.511 82.842 297.511 83.5H300Z" fill="#FDDC38"/>
<path d="M306 83C306 81.2928 305.664 79.6023 305.01 78.0251C304.357 76.4479 303.4 75.0148 302.192 73.8076C300.985 72.6005 299.552 71.6429 297.975 70.9896C296.398 70.3363 294.707 70 293 70L293 73.2353C294.282 73.2353 295.552 73.4879 296.737 73.9786C297.921 74.4693 298.998 75.1886 299.905 76.0953C300.811 77.0021 301.531 78.0785 302.021 79.2632C302.512 80.4479 302.765 81.7177 302.765 83H306Z" fill="#404040"/>
<path d="M412.25 62C415.702 62 418.5 64.7982 418.5 68.25V118.455H431V131H406V68.25C406 64.7982 408.798 62 412.25 62Z" fill="#404040"/>
<path d="M387 62C387 58.717 387.647 55.4661 388.903 52.4329C390.159 49.3998 392.001 46.6438 394.322 44.3223C396.644 42.0009 399.4 40.1594 402.433 38.903C405.466 37.6466 408.717 37 412 37L412 45.2976C409.807 45.2976 407.635 45.7296 405.608 46.569C403.582 47.4083 401.741 48.6386 400.19 50.1896C398.639 51.7406 397.408 53.5818 396.569 55.6083C395.73 57.6347 395.298 59.8066 395.298 62H387Z" fill="#FDDC38"/>
<path d="M368 62C368 56.2218 369.138 50.5003 371.349 45.1619C373.561 39.8236 376.802 34.9731 380.887 30.8873C384.973 26.8015 389.824 23.5605 395.162 21.3493C400.5 19.1381 406.222 18 412 18L412 28.9503C407.66 28.9503 403.362 29.8052 399.352 31.4661C395.343 33.127 391.699 35.5614 388.63 38.6304C385.561 41.6993 383.127 45.3427 381.466 49.3524C379.805 53.3622 378.95 57.6599 378.95 62H368Z" fill="#404040"/>
<path d="M434 69C434 65.6863 436.686 63 440 63C443.314 63 446 65.6863 446 69V290H434V69Z" fill="#404040"/>
<path d="M449 249C449 244.582 452.582 241 457 241H458C462.418 241 466 244.582 466 249V258H449V249Z" fill="#FDDC38"/>
<path d="M449 261H466V265H449V261Z" fill="#404040"/>
<path d="M449 268H466V334H449V268Z" fill="#FDDC38"/>
</svg>
